<?xml version="1.0" encoding="UTF-8"?><svg id="_이어_2" xmlns="http://www.w3.org/2000/svg" viewBox="0 0 504.4 118.43"><defs><style>.cls-1{fill:#0069c2;}</style></defs><g id="_이어_1-2"><g><path class="cls-1" d="M0,114.92v-17.03H45.63v-23.53h21.97v23.53h45.76v17.03H0ZM5.98,1.95H107.25V19.24H27.82v31.59H108.55v17.29H5.98V1.95Z"/><path class="cls-1" d="M127.27,1.04h20.93V15.21h30.55V1.04h20.93V59.41H127.27V1.04Zm3.64,65.13h105.17v33.28h-82.29v4.55h83.72v14.43h-106.6v-33.28h82.29v-4.55h-82.29v-14.43Zm47.84-21.97v-13.91h-30.55v13.91h30.55Zm57.33-23.27h12.22v16.77h-12.22v23.4h-20.93V0h20.93V20.93Z"/><path class="cls-1" d="M256.1,114.92v-17.03h45.63v-23.53h21.97v23.53h45.76v17.03h-113.36ZM262.08,1.95h101.27V19.24h-79.43v31.59h80.73v17.29h-102.57V1.95Z"/><path class="cls-1" d="M383.37,1.04h20.93V15.21h30.55V1.04h20.93V59.41h-72.41V1.04Zm3.64,65.13h105.17v33.28h-82.29v4.55h83.72v14.43h-106.6v-33.28h82.29v-4.55h-82.29v-14.43Zm47.84-21.97v-13.91h-30.55v13.91h30.55Zm57.33-23.27h12.22v16.77h-12.22v23.4h-20.93V0h20.93V20.93Z"/></g></g></svg>
