<svg width="238" height="96" viewBox="0 0 238 96" fill="none" xmlns="http://www.w3.org/2000/svg">
<path fill-rule="evenodd" clip-rule="evenodd" d="M7.91406 1.99219V4.64648C7.90527 7.23926 8.62598 9.91113 10.8145 11.3086L9.60156 13.0488C8.21289 12.2139 7.34277 10.8252 6.83301 9.19043C6.26172 11.001 5.30371 12.5215 3.85352 13.4004L2.48242 11.748C4.85547 10.2803 5.73438 7.45898 5.73438 4.75195V1.99219H7.91406ZM11.2012 7.8457H9.12695V6.01758H11.2012V0.849609H13.293V15.8789H11.2012V7.8457ZM16.6504 16.6172H14.5059V0.621094H16.6504V16.6172ZM24.1738 1.46484V3.13477C24.165 5.07715 25.2988 6.94043 27.8301 7.72266L26.6348 9.46289C24.9385 8.90039 23.752 7.81055 23.0664 6.41309C22.3721 8.02148 21.1328 9.28711 19.3047 9.90234L18.0918 8.14453C20.7637 7.25684 21.9062 5.12988 21.9238 2.92383V1.46484H24.1738ZM25.791 16.6172C22.416 16.626 20.2979 15.4834 20.3066 13.5234C20.2979 11.5811 22.416 10.4297 25.791 10.4297C29.1045 10.4297 31.1787 11.5811 31.1875 13.5234C31.1787 15.4834 29.1045 16.626 25.791 16.6172ZM25.791 12.1875C23.6904 12.1875 22.5391 12.6533 22.5566 13.5234C22.5391 14.4287 23.6904 14.8594 25.791 14.8594C27.8652 14.8594 28.9727 14.4287 28.9727 13.5234C28.9727 12.6533 27.8652 12.1875 25.791 12.1875ZM31.0293 10.1133H28.7793V0.621094H31.0293V4.36523H33.1914V6.22852H31.0293V10.1133ZM46.4453 12.9082H52.6855V14.7539H38.043V12.9082H44.2129V9.63867H39.5898V1.79883H51.0508V9.63867H46.4453V12.9082ZM41.8047 3.5918V7.88086H48.8359V3.5918H41.8047ZM53.5996 8.51367H68.2246V10.3066H53.5996V8.51367ZM66.7129 16.3184H55.3574V11.5547H57.5723V14.5254H66.7129V16.3184ZM66.625 7.21289H55.375V1.20117H66.4668V2.99414H57.6074V5.41992H66.625V7.21289ZM83.7461 0.621094H85.9961V3.71484H88.1582V5.56055H85.9961V8.61914H83.7461V0.621094ZM77.7168 8.33789C75.2559 8.33789 73.4014 6.82617 73.4102 4.7168C73.4014 2.58105 75.2559 1.10449 77.7168 1.0957C80.1689 1.10449 82.0059 2.58105 82.0059 4.7168C82.0059 6.82617 80.1689 8.33789 77.7168 8.33789ZM83.7637 10.9746H75.3789V9.25195H85.9961V13.6113H77.6113V14.6836H86.4531V16.4414H75.4141V11.9941H83.7637V10.9746ZM77.7168 2.92383C76.4863 2.92383 75.5898 3.60059 75.6074 4.7168C75.5898 5.85059 76.4863 6.5625 77.7168 6.5625C78.9385 6.5625 79.8262 5.85059 79.8262 4.7168C79.8262 3.60059 78.9385 2.92383 77.7168 2.92383ZM89.3008 2.2207H94.9785V8.28516H91.4629V11.0098C93.0273 10.9922 94.4951 10.9131 96.1562 10.6055L96.3496 12.4336C94.249 12.8203 92.4561 12.8555 90.4434 12.873H89.3184V6.50977H92.8164V3.99609H89.3008V2.2207ZM97.2812 7.89844H95.6465V6.08789H97.2812V0.919922H99.373V15.8438H97.2812V7.89844ZM102.695 16.6172H100.568V0.621094H102.695V16.6172ZM104.418 12.9609H119.061V14.7891H104.418V12.9609ZM115.158 3.48633H106.088V1.69336H117.373V7.01953H108.355V8.84766H117.742V10.6055H106.105V5.22656H115.158V3.48633ZM131.154 0.621094H133.422V16.6172H131.154V0.621094ZM121.205 13.875L120.027 12.082C124.158 10.1309 125.978 7.59961 126.338 4.04883H120.889V2.29102H128.623C128.614 7.14258 126.918 11.1768 121.205 13.875ZM150.227 0.621094H152.477V5.87695H154.516V7.72266H152.477V13.1016H150.227V0.621094ZM139.732 11.5371L139.504 9.81445C140.655 9.81445 141.991 9.80566 143.389 9.76172V8.83887C141.648 8.59277 140.567 7.73145 140.576 6.47461C140.567 4.89258 142.123 3.96973 144.496 3.97852C146.852 3.96973 148.407 4.89258 148.416 6.47461C148.407 7.72266 147.335 8.58398 145.621 8.83887V9.65625C146.931 9.57715 148.249 9.4541 149.488 9.26953L149.646 10.8164C146.28 11.4668 142.492 11.5107 139.732 11.5371ZM149.084 3.52148H139.926V1.92188H143.389V0.568359H145.621V1.92188H149.084V3.52148ZM153.021 16.3359H141.754V12.2754H144.004V14.543H153.021V16.3359ZM144.496 5.47266C143.354 5.47266 142.712 5.79785 142.721 6.47461C142.712 7.07227 143.354 7.41504 144.496 7.40625C145.621 7.41504 146.263 7.07227 146.271 6.47461C146.263 5.79785 145.621 5.47266 144.496 5.47266ZM161.143 3.99609V4.98047C161.134 7.41504 162.435 10.2275 165.062 11.4492L163.814 13.207C162.03 12.3896 160.765 10.7549 160.044 8.83887C159.332 10.9482 158.014 12.7412 156.168 13.6113L154.867 11.8359C157.53 10.5967 158.875 7.62598 158.893 4.98047V3.99609H155.5V2.16797H164.359V3.99609H161.143ZM167.857 16.6172H165.607V0.621094H167.857V6.7207H170.213V8.60156H167.857V16.6172ZM170.775 7.79297H185.418V9.46289H170.775V7.79297ZM181.445 11.8008H172.445V10.2539H183.66V14.0332H174.695V14.9473H184.135V16.4766H172.463V12.6094H181.445V11.8008ZM181.393 2.43164H172.568V0.902344H183.643V4.66406H174.836V5.52539H183.924V7.03711H172.604V3.24023H181.393V2.43164ZM191.518 4.68164C191.509 2.66895 193.284 1.27148 195.719 1.28906C198.162 1.27148 199.938 2.66895 199.938 4.68164C199.938 6.67676 198.162 8.0918 195.719 8.07422C193.284 8.0918 191.509 6.67676 191.518 4.68164ZM190.814 10.8867L190.533 9.05859C193.372 9.0498 197.389 8.99707 200.799 8.47852L200.939 10.1309C199.621 10.3945 198.268 10.5615 196.932 10.667V16.1426H194.699V10.7988C193.543 10.8494 192.44 10.8643 191.445 10.8778C191.229 10.8807 191.019 10.8836 190.814 10.8867ZM195.719 3.08203C194.523 3.07324 193.671 3.66211 193.68 4.68164C193.671 5.68359 194.523 6.26367 195.719 6.24609C196.949 6.26367 197.811 5.68359 197.811 4.68164C197.811 3.66211 196.949 3.07324 195.719 3.08203ZM203.98 16.6172H201.766V0.638672H203.98V16.6172ZM216.461 0.621094H218.676V6.87891H221.031V8.72461H218.676V16.6172H216.461V0.621094ZM215.371 4.80469H205.967V3.01172H209.588V0.867188H211.838V3.01172H215.371V4.80469ZM210.713 13.3301C208.349 13.3213 206.608 11.748 206.617 9.51562C206.608 7.2832 208.349 5.69238 210.713 5.70117C213.042 5.69238 214.791 7.2832 214.791 9.51562C214.791 11.748 213.042 13.3213 210.713 13.3301ZM210.713 7.51172C209.579 7.5293 208.762 8.28516 208.762 9.51562C208.762 10.7549 209.579 11.4932 210.713 11.4844C211.829 11.4932 212.646 10.7549 212.646 9.51562C212.646 8.28516 211.829 7.5293 210.713 7.51172ZM221.875 7.44141C221.857 3.95215 223.598 1.74609 226.023 1.74609C227.465 1.74609 228.66 2.52832 229.39 3.9082H232.896V0.621094H235.111V16.6523H232.896V10.6582H229.557C228.845 12.2402 227.57 13.1543 226.023 13.1543C223.598 13.1543 221.857 10.957 221.875 7.44141ZM226.023 3.76758C224.828 3.76758 224.011 5.06836 224.02 7.44141C224.011 9.82324 224.828 11.124 226.023 11.1152C227.228 11.124 228.027 9.82324 228.027 7.44141C228.027 5.06836 227.228 3.76758 226.023 3.76758ZM232.896 5.71875H230.014C230.119 6.24609 230.172 6.82617 230.172 7.44141C230.172 7.94238 230.137 8.41699 230.066 8.86523H232.896V5.71875ZM12.2942 87V84.69H51.3542C52.9875 84.69 53.8042 84.0367 53.8042 82.73V70.41C53.8042 68.8233 52.7542 68.03 50.6542 68.03H4.73418C3.05418 68.03 2.21418 68.9167 2.21418 70.69V73.63C2.21418 75.2167 3.21751 76.01 5.22418 76.01H43.4442V78.25H5.08418C3.17085 78.25 2.21418 79.2533 2.21418 81.26V92.18C2.21418 94.14 3.31085 95.12 5.50418 95.12H51.3542C52.9875 95.12 53.8042 94.35 53.8042 92.81V89.03C53.8042 87.5833 52.9875 86.9067 51.3542 87H12.2942ZM56.2542 42.13C56.2542 40.3567 55.5308 39.47 54.0842 39.47H50.2342V27.71C50.2342 26.0767 49.3242 25.26 47.5042 25.26H41.6942C39.8275 25.26 38.8942 26.1 38.8942 27.78V62.71C38.8942 64.39 39.8508 65.23 41.7642 65.23H47.4342C49.3008 65.23 50.2342 64.3433 50.2342 62.57V50.39H53.8042C55.4375 50.39 56.2542 49.5267 56.2542 47.8V42.13ZM9.42418 63.97C11.7575 64.81 14.6508 65.23 18.1042 65.23C21.4642 65.23 24.2642 64.81 26.5042 63.97C28.7908 63.13 30.6342 61.8933 32.0342 60.26C33.4342 58.58 34.4142 56.5033 34.9742 54.03C35.5808 51.51 35.8842 48.5933 35.8842 45.28C35.8842 41.92 35.5808 39.0033 34.9742 36.53C34.4142 34.01 33.4575 31.9333 32.1042 30.3C30.7508 28.62 28.9308 27.36 26.6442 26.52C24.3575 25.68 21.5108 25.26 18.1042 25.26C14.7442 25.26 11.9208 25.68 9.63418 26.52C7.34751 27.36 5.50418 28.62 4.10418 30.3C2.70418 31.9333 1.70085 34.01 1.09418 36.53C0.53418 39.0033 0.254181 41.92 0.254181 45.28C0.254181 48.5933 0.53418 51.51 1.09418 54.03C1.65418 56.5033 2.61085 58.58 3.96418 60.26C5.31751 61.8933 7.13751 63.13 9.42418 63.97ZM14.4642 35.83C15.4442 35.41 16.6575 35.2 18.1042 35.2C23.0975 35.2 25.5942 38.56 25.5942 45.28C25.5942 48.64 25.0342 51.16 23.9142 52.84C22.8408 54.52 20.9042 55.36 18.1042 55.36C15.3042 55.36 13.3675 54.52 12.2942 52.84C11.2208 51.16 10.6842 48.64 10.6842 45.28C10.6842 43.6 10.8008 42.13 11.0342 40.87C11.2675 39.61 11.6642 38.56 12.2242 37.72C12.7842 36.88 13.5308 36.25 14.4642 35.83ZM105.72 95.12C107.493 95.12 108.38 94.2333 108.38 92.46V27.57C108.38 25.9833 107.423 25.19 105.51 25.19H100.89C99.0229 25.19 98.0896 26.03 98.0896 27.71V59.7H88.7796C87.0529 59.7 86.1896 60.7267 86.1896 62.78V66.84C86.1896 68.52 87.2396 69.36 89.3396 69.36H98.0896V77.48C89.8762 81.12 81.8029 82.94 73.8696 82.94V53.89H89.8296C92.5362 53.89 93.8896 52.6533 93.8896 50.18V29.39C93.8896 27.5233 92.9096 26.59 90.9496 26.59H65.9596C64.1862 26.59 63.2996 27.5233 63.2996 29.39V33.1C63.2996 34.9667 64.3029 35.9 66.3096 35.9H82.8296V44.02H66.0296C64.2096 44.02 63.2996 44.93 63.2996 46.75V90.29C63.2996 92.4833 64.4896 93.58 66.8696 93.58C76.9029 93.58 87.3096 91.83 98.0896 88.33V92.6C98.0896 94.28 99.0929 95.12 101.1 95.12H105.72ZM118.74 95.12C120.653 95.12 121.61 94.21 121.61 92.39V27.78C121.61 26.0533 120.7 25.19 118.88 25.19H114.12C112.206 25.19 111.25 26.0533 111.25 27.78V92.46C111.25 94.2333 112.253 95.12 114.26 95.12H118.74ZM179.163 86.02C179.163 84.1533 178.23 83.22 176.363 83.22H132.403C130.63 83.22 129.743 84.0833 129.743 85.81V91.13C129.743 92.8567 130.7 93.72 132.613 93.72H176.223C178.183 93.72 179.163 92.8333 179.163 91.06V86.02ZM176.503 53.89C178.277 53.89 179.163 53.05 179.163 51.37V29.04C179.163 27.4533 178.323 26.66 176.643 26.66H131.983C130.49 26.66 129.743 27.36 129.743 28.76V34.29C129.743 35.8767 130.443 36.67 131.843 36.67H167.963V44.09H132.403C130.63 44.09 129.743 44.93 129.743 46.61V76.5C129.743 77.8067 130.537 78.46 132.123 78.46C148.737 78.3667 163.763 76.9667 177.203 74.26C178.51 73.98 179.163 73.0467 179.163 71.46V66.28C179.163 64.88 178.277 64.3433 176.503 64.67C163.437 67.05 151.583 68.2633 140.943 68.31V53.89H176.503ZM235.252 94.98C236.932 94.98 237.772 94.1167 237.772 92.39V27.71C237.772 26.0767 236.932 25.26 235.252 25.26H229.162C227.389 25.26 226.502 26.0767 226.502 27.71V92.39C226.502 94.1167 227.389 94.98 229.162 94.98H235.252ZM218.452 89.87C220.179 89.4033 221.042 88.3533 221.042 86.72V29.67C221.042 27.6633 219.898 26.66 217.612 26.66H190.452C188.352 26.66 187.302 27.6633 187.302 29.67V91.2C187.302 92.8333 188.282 93.65 190.242 93.65C200.648 93.51 210.052 92.25 218.452 89.87ZM210.052 82.24C206.832 83.4067 202.795 84.0133 197.942 84.06V36.39H210.052V82.24Z" fill="#F95643"/>
</svg>
