<svg id="ePLZivBKk7x1" xmlns="http://www.w3.org/2000/svg" xmlns:xlink="http://www.w3.org/1999/xlink" viewBox="0 0 520.31 152" shape-rendering="geometricPrecision" text-rendering="geometricPrecision">
<style><![CDATA[
#ePLZivBKk7x5_tr {animation: ePLZivBKk7x5_tr__tr 1500ms linear infinite normal forwards}@keyframes ePLZivBKk7x5_tr__tr { 0% {transform: translate(79.380001px,76.354999px) rotate(0deg);animation-timing-function: cubic-bezier(0.42,0,0.58,1)} 100% {transform: translate(79.380001px,76.354999px) rotate(359.999999deg)}}
]]></style>
<g transform="translate(.000002 0)"><rect width="520.31" height="152" rx="17.03" ry="17.03" fill="#fff"/><g><g id="ePLZivBKk7x5_tr" transform="translate(79.380001,76.354999) rotate(0)"><g transform="translate(-79.380001,-76.354999)"><circle r="8.13" transform="translate(79.38 47.57)"/><circle r="8.13" transform="translate(79.37 105.14)" fill="#666"/><circle r="8.13" transform="translate(108.17 76.35)" fill="#999"/><circle r="8.13" transform="translate(50.59 76.35)" fill="#333"/><circle r="8.13" transform="translate(99.74 55.99)" fill="#b2b2b2"/><path d="M53.28,90.95c-3.17,3.17-3.17,8.32,0,11.49s8.32,3.17,11.49,0s3.17-8.32,0-11.49-8.32-3.17-11.49,0Z" fill="#4c4c4c"/><path d="M93.99,90.95c-3.17,3.17-3.17,8.32,0,11.49s8.32,3.17,11.49,0s3.17-8.32,0-11.49-8.32-3.17-11.49,0Z" fill="#7f7f7f"/><path d="M53.28,50.24c-3.17,3.17-3.17,8.32,0,11.49s8.32,3.17,11.49,0s3.17-8.32,0-11.49-8.32-3.17-11.49,0Z" fill="#191919"/></g></g><g><path d="M154.72,83.8h-12.23v20.71h-11.96v-57.61h25.09c5.78,0,10.4,1.49,13.84,4.46s5.16,7.57,5.16,13.8c0,6.8-1.72,11.61-5.16,14.42s-8.35,4.22-14.73,4.22h-.01Zm5.63-12c1.56-1.38,2.35-3.57,2.35-6.57s-.79-5.13-2.36-6.41c-1.58-1.28-3.79-1.92-6.62-1.92h-11.22v16.96h11.22c2.84,0,5.05-.69,6.64-2.07v0Z"/><path d="M204.16,72.19c-4.48,0-7.49,1.46-9.03,4.38-.86,1.64-1.29,4.17-1.29,7.58v20.36h-11.22v-42.6h10.63v7.43c1.72-2.84,3.22-4.78,4.49-5.82c2.08-1.75,4.79-2.62,8.13-2.62.21,0,.38,0,.53.02.14.01.46.03.96.06v11.41c-.7-.08-1.33-.13-1.88-.16s-.99-.04-1.33-.04v0Z"/><path d="M249.42,67.31c3.6,4.51,5.39,9.84,5.39,15.99s-1.8,11.6-5.39,16.04c-3.6,4.44-9.05,6.66-16.38,6.66s-12.78-2.22-16.38-6.66-5.39-9.79-5.39-16.04s1.8-11.48,5.39-15.99c3.6-4.51,9.05-6.76,16.38-6.76s12.78,2.25,16.38,6.76ZM233,69.97c-3.26,0-5.76,1.15-7.52,3.46s-2.64,5.6-2.64,9.87.88,7.57,2.64,9.89s4.27,3.48,7.52,3.48s5.76-1.16,7.5-3.48c1.75-2.32,2.62-5.61,2.62-9.89s-.87-7.56-2.62-9.87-4.25-3.46-7.5-3.46Z"/><path d="M274.82,111.98c1.2,1.02,3.22,1.52,6.06,1.52c4.01,0,6.7-1.34,8.05-4.03.89-1.72,1.33-4.61,1.33-8.68v-2.74c-1.07,1.82-2.21,3.19-3.44,4.1-2.21,1.69-5.09,2.54-8.64,2.54-5.47,0-9.84-1.92-13.11-5.76s-4.91-9.05-4.91-15.61s1.58-11.65,4.73-15.97c3.15-4.31,7.62-6.47,13.41-6.47c2.14,0,4,.33,5.59.98c2.71,1.12,4.9,3.18,6.57,6.18v-6.14h10.83v40.43c0,5.5-.92,9.64-2.77,12.43-3.18,4.79-9.28,7.19-18.29,7.19-5.45,0-9.89-1.07-13.33-3.21s-5.34-5.33-5.71-9.58h12.12c.31,1.3.82,2.24,1.52,2.81v0Zm-1.88-21.99c1.51,3.6,4.22,5.39,8.13,5.39c2.61,0,4.81-.98,6.61-2.95s2.7-5.1,2.7-9.4c0-4.04-.85-7.11-2.56-9.22s-3.99-3.17-6.86-3.17c-3.91,0-6.61,1.84-8.09,5.51-.78,1.95-1.17,4.36-1.17,7.23c0,2.48.42,4.68,1.25,6.6h-.01Z"/><path d="M333.1,72.19c-4.48,0-7.49,1.46-9.03,4.38-.86,1.64-1.29,4.17-1.29,7.58v20.36h-11.22v-42.6h10.63v7.43c1.72-2.84,3.22-4.78,4.5-5.82c2.08-1.75,4.79-2.62,8.13-2.62.21,0,.38,0,.53.02s.46.03.96.06v11.41c-.7-.08-1.33-.13-1.88-.16s-.99-.04-1.33-.04Z"/><path d="M379.3,92.01c-.29,2.53-1.6,5.09-3.95,7.7-3.65,4.14-8.75,6.21-15.32,6.21-5.42,0-10.2-1.75-14.34-5.24s-6.21-9.17-6.21-17.04c0-7.37,1.87-13.03,5.61-16.96s8.59-5.9,14.56-5.9c3.54,0,6.74.66,9.58,1.99s5.18,3.43,7.04,6.29c1.67,2.53,2.75,5.46,3.24,8.79.29,1.95.4,4.77.35,8.44h-29.16c.16,4.27,1.5,7.27,4.03,8.99c1.54,1.07,3.39,1.6,5.55,1.6c2.29,0,4.16-.65,5.59-1.95.78-.7,1.47-1.68,2.07-2.93h11.36ZM368.28,78.97c-.18-2.94-1.08-5.18-2.68-6.7s-3.59-2.29-5.96-2.29c-2.58,0-4.58.81-6,2.42-1.42,1.62-2.31,3.8-2.68,6.57h17.32Z"/><path d="M416.7,63.87c3.33,2.14,5.25,5.81,5.75,11.02h-11.14c-.16-1.43-.56-2.57-1.21-3.4-1.22-1.51-3.31-2.27-6.25-2.27-2.42,0-4.15.38-5.18,1.13-1.03.76-1.54,1.64-1.54,2.66c0,1.28.55,2.2,1.64,2.77c1.09.6,4.96,1.63,11.61,3.09c4.43,1.04,7.75,2.62,9.97,4.73c2.19,2.14,3.28,4.81,3.28,8.01c0,4.22-1.57,7.67-4.71,10.34s-7.99,4.01-14.56,4.01-11.64-1.41-14.83-4.24-4.79-6.43-4.79-10.81h11.3c.23,1.98.74,3.39,1.52,4.22c1.38,1.49,3.93,2.23,7.66,2.23c2.19,0,3.93-.33,5.22-.98s1.93-1.63,1.93-2.93-.52-2.2-1.56-2.85-4.91-1.77-11.61-3.36c-4.82-1.2-8.22-2.7-10.2-4.49-1.98-1.77-2.97-4.33-2.97-7.66c0-3.93,1.54-7.31,4.63-10.14s7.43-4.24,13.03-4.24s9.65,1.06,13.02,3.17v0Z"/><path d="M461.22,63.87c3.33,2.14,5.25,5.81,5.75,11.02h-11.14c-.16-1.43-.56-2.57-1.21-3.4-1.22-1.51-3.31-2.27-6.25-2.27-2.42,0-4.15.38-5.18,1.13-1.03.76-1.54,1.64-1.54,2.66c0,1.28.55,2.2,1.64,2.77c1.09.6,4.96,1.63,11.61,3.09c4.43,1.04,7.75,2.62,9.97,4.73c2.19,2.14,3.28,4.81,3.28,8.01c0,4.22-1.57,7.67-4.71,10.34s-7.99,4.01-14.56,4.01-11.64-1.41-14.83-4.24-4.79-6.43-4.79-10.81h11.3c.23,1.98.74,3.39,1.52,4.22c1.38,1.49,3.93,2.23,7.66,2.23c2.19,0,3.93-.33,5.22-.98s1.93-1.63,1.93-2.93-.52-2.2-1.56-2.85-4.91-1.77-11.61-3.36c-4.82-1.2-8.22-2.7-10.2-4.49-1.98-1.77-2.97-4.33-2.97-7.66c0-3.93,1.54-7.31,4.63-10.14s7.43-4.24,13.03-4.24s9.65,1.06,13.02,3.17v0Z"/></g></g></g></svg>
