<?xml version="1.0" encoding="UTF-8"?><svg id="_레이어_2" xmlns="http://www.w3.org/2000/svg" viewBox="0 0 425.67 82.52"><defs><style>.cls-1{fill:#7f7f7f;}.cls-2{fill:#999;}.cls-3{fill:#666;}.cls-4{fill:#333;}.cls-5{fill:#b2b2b2;}.cls-6{fill:#191919;}.cls-7{fill:#4c4c4c;}</style></defs><g id="_레이어_1-2"><circle cx="36.91" cy="8.13" r="8.13" transform="translate(-.88 8.7) rotate(-13.28)"/><circle class="cls-3" cx="36.91" cy="65.7" r="8.13" transform="translate(-14.11 10.24) rotate(-13.28)"/><circle class="cls-2" cx="65.7" cy="36.91" r="8.13" transform="translate(-6.72 16.08) rotate(-13.28)"/><circle class="cls-4" cx="8.13" cy="36.91" r="8.13" transform="translate(-23.72 16.56) rotate(-45)"/><circle class="cls-5" cx="57.27" cy="16.56" r="8.13"/><path class="cls-7" d="M10.81,51.52c-3.17,3.17-3.17,8.32,0,11.49s8.32,3.17,11.49,0c3.17-3.17,3.17-8.32,0-11.49s-8.32-3.17-11.49,0Z"/><path class="cls-1" d="M51.52,51.52c-3.17,3.17-3.17,8.32,0,11.49,3.17,3.17,8.32,3.17,11.49,0,3.17-3.17,3.17-8.32,0-11.49s-8.32-3.17-11.49,0Z"/><path class="cls-6" d="M10.81,10.81c-3.17,3.17-3.17,8.32,0,11.49,3.17,3.17,8.32,3.17,11.49,0s3.17-8.32,0-11.49-8.32-3.17-11.49,0Z"/><g><path d="M112.25,44.37h-12.23v20.71h-11.96V7.47h25.09c5.78,0,10.4,1.49,13.84,4.46,3.44,2.97,5.16,7.57,5.16,13.8,0,6.8-1.72,11.61-5.16,14.42s-8.35,4.22-14.73,4.22Zm5.63-12c1.56-1.38,2.35-3.57,2.35-6.57s-.79-5.13-2.36-6.41c-1.58-1.28-3.79-1.92-6.62-1.92h-11.22v16.96h11.22c2.84,0,5.05-.69,6.64-2.07Z"/><path d="M161.69,32.76c-4.48,0-7.49,1.46-9.03,4.38-.86,1.64-1.29,4.17-1.29,7.58v20.36h-11.22V22.48h10.63v7.43c1.72-2.84,3.22-4.78,4.49-5.82,2.08-1.75,4.79-2.62,8.13-2.62,.21,0,.38,0,.53,.02,.14,.01,.46,.03,.96,.06v11.41c-.7-.08-1.33-.13-1.88-.16-.55-.03-.99-.04-1.33-.04Z"/><path d="M206.95,27.88c3.6,4.51,5.39,9.84,5.39,15.99s-1.8,11.6-5.39,16.04c-3.6,4.44-9.05,6.66-16.38,6.66s-12.78-2.22-16.38-6.66c-3.6-4.44-5.39-9.79-5.39-16.04s1.8-11.48,5.39-15.99c3.6-4.51,9.05-6.76,16.38-6.76s12.78,2.25,16.38,6.76Zm-16.42,2.66c-3.26,0-5.76,1.15-7.52,3.46s-2.64,5.6-2.64,9.87,.88,7.57,2.64,9.89c1.76,2.32,4.27,3.48,7.52,3.48s5.76-1.16,7.5-3.48c1.75-2.32,2.62-5.61,2.62-9.89s-.87-7.56-2.62-9.87c-1.75-2.31-4.25-3.46-7.5-3.46Z"/><path d="M232.35,72.55c1.2,1.02,3.22,1.52,6.06,1.52,4.01,0,6.7-1.34,8.05-4.03,.89-1.72,1.33-4.61,1.33-8.68v-2.74c-1.07,1.82-2.21,3.19-3.44,4.1-2.21,1.69-5.09,2.54-8.64,2.54-5.47,0-9.84-1.92-13.11-5.76-3.27-3.84-4.91-9.05-4.91-15.61s1.58-11.65,4.73-15.97c3.15-4.31,7.62-6.47,13.41-6.47,2.14,0,4,.33,5.59,.98,2.71,1.12,4.9,3.18,6.57,6.18v-6.14h10.83V62.9c0,5.5-.92,9.64-2.77,12.43-3.18,4.79-9.28,7.19-18.29,7.19-5.45,0-9.89-1.07-13.33-3.21-3.44-2.14-5.34-5.33-5.71-9.58h12.12c.31,1.3,.82,2.24,1.52,2.81Zm-1.88-22c1.51,3.6,4.22,5.39,8.13,5.39,2.61,0,4.81-.98,6.61-2.95,1.8-1.97,2.7-5.1,2.7-9.4,0-4.04-.85-7.11-2.56-9.22-1.71-2.11-3.99-3.17-6.86-3.17-3.91,0-6.61,1.84-8.09,5.51-.78,1.95-1.17,4.36-1.17,7.23,0,2.48,.42,4.68,1.25,6.6Z"/><path d="M290.63,32.76c-4.48,0-7.49,1.46-9.03,4.38-.86,1.64-1.29,4.17-1.29,7.58v20.36h-11.22V22.48h10.63v7.43c1.72-2.84,3.22-4.78,4.5-5.82,2.08-1.75,4.79-2.62,8.13-2.62,.21,0,.38,0,.53,.02s.46,.03,.96,.06v11.41c-.7-.08-1.33-.13-1.88-.16s-.99-.04-1.33-.04Z"/><path d="M336.83,52.58c-.29,2.53-1.6,5.09-3.95,7.7-3.65,4.14-8.75,6.21-15.32,6.21-5.42,0-10.2-1.75-14.34-5.24-4.14-3.49-6.21-9.17-6.21-17.04,0-7.37,1.87-13.03,5.61-16.96,3.74-3.93,8.59-5.9,14.56-5.9,3.54,0,6.74,.66,9.58,1.99,2.84,1.33,5.18,3.43,7.04,6.29,1.67,2.53,2.75,5.46,3.24,8.79,.29,1.95,.4,4.77,.35,8.44h-29.16c.16,4.27,1.5,7.27,4.03,8.99,1.54,1.07,3.39,1.6,5.55,1.6,2.29,0,4.16-.65,5.59-1.95,.78-.7,1.47-1.68,2.07-2.93h11.37Zm-11.02-13.05c-.18-2.94-1.08-5.18-2.68-6.7-1.6-1.52-3.59-2.29-5.96-2.29-2.58,0-4.58,.81-6,2.42-1.42,1.62-2.31,3.8-2.68,6.57h17.31Z"/><path d="M374.23,24.44c3.33,2.14,5.25,5.81,5.75,11.02h-11.14c-.16-1.43-.56-2.57-1.21-3.4-1.22-1.51-3.31-2.27-6.25-2.27-2.42,0-4.15,.38-5.18,1.13-1.03,.76-1.54,1.64-1.54,2.66,0,1.28,.55,2.2,1.64,2.77,1.09,.6,4.96,1.63,11.61,3.09,4.43,1.04,7.75,2.62,9.97,4.73,2.19,2.14,3.28,4.81,3.28,8.01,0,4.22-1.57,7.67-4.71,10.34s-7.99,4.01-14.56,4.01-11.64-1.41-14.83-4.24c-3.19-2.83-4.79-6.43-4.79-10.81h11.3c.23,1.98,.74,3.39,1.52,4.22,1.38,1.49,3.93,2.23,7.66,2.23,2.19,0,3.93-.33,5.22-.98,1.29-.65,1.93-1.63,1.93-2.93s-.52-2.2-1.56-2.85c-1.04-.65-4.91-1.77-11.61-3.36-4.82-1.2-8.22-2.7-10.2-4.49-1.98-1.77-2.97-4.33-2.97-7.66,0-3.93,1.54-7.31,4.63-10.14,3.09-2.83,7.43-4.24,13.03-4.24s9.65,1.06,13.02,3.17Z"/><path d="M418.75,24.44c3.33,2.14,5.25,5.81,5.75,11.02h-11.14c-.16-1.43-.56-2.57-1.21-3.4-1.22-1.51-3.31-2.27-6.25-2.27-2.42,0-4.15,.38-5.18,1.13-1.03,.76-1.54,1.64-1.54,2.66,0,1.28,.55,2.2,1.64,2.77,1.09,.6,4.96,1.63,11.61,3.09,4.43,1.04,7.75,2.62,9.97,4.73,2.19,2.14,3.28,4.81,3.28,8.01,0,4.22-1.57,7.67-4.71,10.34s-7.99,4.01-14.56,4.01-11.64-1.41-14.83-4.24c-3.19-2.83-4.79-6.43-4.79-10.81h11.3c.23,1.98,.74,3.39,1.52,4.22,1.38,1.49,3.93,2.23,7.66,2.23,2.19,0,3.93-.33,5.22-.98,1.29-.65,1.93-1.63,1.93-2.93s-.52-2.2-1.56-2.85c-1.04-.65-4.91-1.77-11.61-3.36-4.82-1.2-8.22-2.7-10.2-4.49-1.98-1.77-2.97-4.33-2.97-7.66,0-3.93,1.54-7.31,4.63-10.14,3.09-2.83,7.43-4.24,13.03-4.24s9.65,1.06,13.02,3.17Z"/></g></g></svg>
